<svg fill="none" height="127" viewBox="0 0 177 127" width="177" xmlns="http://www.w3.org/2000/svg"><path d="m24.2535 40.3614 3.2907-13.1366c4.9612-3.6188 11.3418-2.442 16.9951-4.2063 1.7824-1.266.3352-5.617 2.0136-8.5868.8907-1.576 14.1946-13.595559 15.6424-14.031396 2.1499-.647171 5.7714-.40448788 8.0279.032745 3.786.733591 43.7708 15.160051 45.7138 16.621951.969.7288.335 2.4185.882 2.9688.795.7988 3.36.1626 3.879 2.0073l.63 15.309c-7.043 5.8918-7.996-.36-9.514-6.412-4.517 3.8301-4.93 10.3745-4.77 15.8898 6.782-.2938 7.838-6.6325 14.329-6.438 2.421.0726 16.461 5.547 18.486 7.0137 2.351 1.7034 1.838 4.1661 2.343 4.5679.708.5629 2.69-.2163 3.797.3934 5.221 2.8749-2.144 18.1573 1.294 21.5352 1.16 1.1388 15.554 4.7916 19.095 6.3399 4.029 1.7621 6.273 5.1947 10.612 4.7597l-.002 1.5743c-7.26 4.637-4.261 17.369-4.688 24.994l-7.969.924c-1.249-6.191-1.652-11.759-.068-17.9571l-8.262 3.3922-5.498 23.1079c4.718-2.466 11.022-5.336 16.401-5.334.962.001 3.651-.467 2.66 1.609-1.085 2.274-14.949 5.661-17.71 8.811-10.891 1.255-20.539-5.503-30.195-8.585-6.135-1.958-12.927-2.859-19.423-4.959-2.8859-.933-6.4078-3.65-8.7299-4.077-3.8574-.708-10.3269 3.454-7.712-3.315-8.0635-1.871-16.6916-3.725-24.3349-6.9546-7.4861-3.163-14.6517-6.4629-22.2545-9.5477-13.1187-5.3229-26.2007-10.7293-39.089064-16.5596-.838792-1.3187 2.743164-22.3913 4.203194-24.6412 2.9626-4.5653 14.66457-7.5674 19.92467-7.1105zm-13.6566 13.9075c.3977 4.5265-3.88925 11.1034-.1016 14.3468l29.744 13.1895 3.1773-17.9608c-10.307-5.2002-21.224-8.41-32.8197-9.5755zm3.1529-8.495c-2.2164 2.2163 6.7246 4.2476 7.9896 4.2817 2.6479.0714 1.402-2.6504 2.3736-3.8007-.5449-3.171-8.0838-.6796-10.3632-.481zm54.056 21.1912.5821-20.1844c-.4864-.7203-12.9695-5.3101-15.1331-6.0682-1.6551-.5799-3.9643.0241-5.8524-.5081-2.8408-.8008-8.3097-5.8923-11.7572-7.3444-1.1437-.4817-1.0527-1.4655-2.3116.1525l-2.1613 18.0514zm-23.3181-40.2778-6.3494 1.5801c.7233 1.1265 5.4353 4.7175 6.3496 3.7102zm44.5205 50.8861c-1.5423-1.4868-16.3872-.7074-19.3679-1.3074-4.0952-.8243-14.9952-9.458-17.2082-9.2717l-4.735 16.8636c13.2263 4.3117 23.9546 14.4133 38.5031 14.9767 2.2296-.4995 3.1822-18.2375 2.808-21.2612zm10.6098-25.45v-14.8404c-7.1073 1.0271-43.2291-19.2243-45.5783-16.9636-.0741 3.859-2.8981 10.9024.7437 13.8422zm-43.4235-40.2404c-.4859 2.0483.9538 2.5318 2.3926 3.3571 5.7949 3.3236 16.73 4.9579 22.7332 7.9658 1.7269.8653 3.3677 3.5977 6.6473 5.0588 3.1642 1.4097 12.5724 4.8962 15.4284 2.7403.666-.5022 5.596-7.5285 5.658-8.1978.188-2.0494-6.363-4.2974-8.393-5.118-6.6812-2.7008-26.9013-11.33734-32.6149-11.97353-6.4157-.71435-6.7827 3.99942-11.8516 6.16733zm60.3845 70.9813v-16.9605l-37.6681-14.8237c-2.1303-.2773-1.3695.0582-1.5586 1.5487-.3733 2.9413-1.4836 13.5431-.5367 15.4134 1.9481 3.8481 26.4604 5.536 33.6704 10.5579 1.958 1.3634 2.018 5.2955 6.093 4.2642zm-19.076-2.1155c1.2068 5.5272-4.2856 17.1618-.0705 20.7602 2.2292 1.904 9.0515 6.361 11.7285 7.323 6.284 2.258 14.988 2.206 20.448 3.934 2.701.855 7.607 7.675 12.338 6.064l3.071-18.8335c-1.165-1.8888-25.438-8.5602-29.495-10.2457-2.547-1.058-16.7974-10.3101-18.02-9.002zm20.834-33.2424c-1.144.9036-12.254 7.7625-10.236 9.9096 4.86-.2903 10.821 4.7612 15.089 4.0676 5.788-.9409 11.045-6.8612 16.703-8.3134l-20.149-7.9759c-.599.6063-.827 1.8541-1.407 2.3121zm6.723 20.5174c-.847 1.3815.627 13.0779 0 15.9005l13.255-8.4266.003-15.9473c-2.172 2.8429-8.502 3.5487-10.457 5.2257-.868.7444-.494 2.0018-1.03 2.8787-.357.5843-1.724.2919-1.771.369zm41.337 18.0324-22.837-7.3316-14.253 9.4279 21.711 6.4409z" fill="#353848"/></svg>