<svg width="376" height="250" viewBox="0 0 376 250" fill="none" xmlns="http://www.w3.org/2000/svg">
<g clip-path="url(#clip0_141_127966)">
<path d="M347.659 15.3999C359.255 26.8176 358.353 41.1471 363.695 51.11C367.196 57.6384 378.465 59.6855 372.344 77.2051L363.642 77.4071C366.862 87.5871 373.394 102.108 374.718 112.26C375.728 119.998 376.167 151.123 375.33 159.567C372.062 192.544 362.055 208.562 332.686 221.873C294.661 239.108 293.69 229.645 257.302 227.242C231.85 225.562 207.459 233.934 183.742 227.324C183.632 255.819 131.1 253.015 117.632 237.943C109.29 228.608 107.265 199.712 119.218 191.425C128.168 197.342 125.213 214.57 132.821 219.743C141.542 225.673 156.041 223.572 165.713 221.333C162.4 198.565 131.066 207.405 138.728 176.368C157.326 172.073 165.202 194.312 176.042 200.527C189.183 208.062 229.758 201.275 247.075 202.162C262.204 202.937 279.996 209.288 293.338 209.454C305.128 209.601 345.89 194.077 352.994 185.204C365.967 168.999 352.816 168.82 347.962 160.628C340.585 148.178 341.41 131.617 346.302 118.51C348.741 111.975 355.02 106.296 356.458 101.408C358.275 95.2353 354.133 87.3437 357.658 80.4047C316.647 90.5544 317.522 139.48 321.658 173.353C313.684 182.758 304.058 139.918 303.719 135.857C300.9 102.064 316.808 63.3008 351.663 53.3434C346.43 29.0058 314.052 24.9852 293.143 23.4296C266.814 21.4708 241.443 27.0212 215.271 26.3101C203.723 23.2642 200.047 13.5076 201.686 2.39944C237.109 5.13612 320.874 -10.9722 347.659 15.3999ZM363.649 158.355L360.703 137.397C359.899 143.323 351.565 160.565 363.649 158.355Z" fill="currentColor"/>
<path d="M111.636 38.3079C88.5185 42.3621 50.2205 45.7581 33.6857 63.8363C15.1085 84.1476 10.7049 142.485 30.6273 162.979C50.6736 183.6 85.7894 168.342 81.737 203.363C-9.99504 213.308 -29.5049 55.619 48.8021 24.9623C69.1995 16.9769 118.687 0.541735 111.636 38.3079Z" fill="currentColor"/>
<path d="M129.194 76.9013C126.227 81.7259 92.1178 86.1877 87.7839 96.8807L126.825 108.753C133.457 116.237 130.316 125.479 129.602 134.261C122.178 134.856 113.873 134.378 106.837 131.865C102.234 130.222 102.543 126.207 98.9664 124.528C81.1577 116.17 67.5441 119.745 69.539 90.9236C70.9993 69.8271 104.359 50.6894 121.88 54.1005C129.572 55.5982 132.437 71.6284 129.194 76.9013Z" fill="currentColor"/>
<path d="M195.687 92.3961L183.896 92.1982C185.026 82.6297 168.86 32.6703 161.207 32.4514C146.729 45.6559 174.208 74.6848 171.413 87.6408C168.892 91.9888 166.749 93.3108 161.665 91.9685C146.219 87.891 126.529 5.27311 160.739 3.0498C170.641 3.9826 176.303 20.0718 180.277 28.318C189.817 48.1169 197.97 70.0724 195.687 92.3961Z" fill="currentColor"/>
<path d="M240.725 89.3941C238.503 81.872 235.416 71.2505 240.441 64.3023C244.183 59.1284 257.175 63.0877 258.671 56.4186L225.621 55.0743L223.128 32.8236C281.975 15.7957 306.581 76.0189 240.725 89.3941Z" fill="currentColor"/>
<path d="M255.672 140.343C255.964 134.34 244.75 137.314 243.557 132.393C242.617 128.514 242.987 117.166 246.494 114.69C292.374 102.408 305.533 161.413 254.303 164.484C217.629 166.683 219.613 132.96 255.672 140.343Z" fill="currentColor"/>
</g>
<defs>
<clipPath id="clip0_141_127966">
<rect width="375.77" height="249.104" fill="white"/>
</clipPath>
</defs>
</svg>
