<svg width="57" height="376" xmlns="http://www.w3.org/2000/svg">
    <defs>
        <clipPath id="handheldClip">
            <path d="M0.499996 278.5C0.499995 263.036 13.036 250.5 28.5 250.5C43.964 250.5 56.5 263.036 56.5 278.5L56.5 347.5C56.5 362.964 43.964 375.5 28.5 375.5C13.036 375.5 0.499999 362.964 0.499999 347.5L0.499996 278.5ZM56.5 125.5L56.5 250.5L0.499995 250.5L0.499989 125.5L56.5 125.5ZM0.499985 28.5C0.499984 13.036 13.036 0.499999 28.5 0.499999C43.964 0.499998 56.5 13.036 56.5 28.5L56.5 97.5C56.5 112.964 43.964 125.5 28.5 125.5C13.036 125.5 0.499989 112.964 0.499988 97.5L0.499985 28.5Z" fill="currentColor"/>
        </clipPath>
    </defs>
</svg>
