<svg fill="none" height="130" viewBox="0 0 148 130" width="148" xmlns="http://www.w3.org/2000/svg"><path d="m.927801 35.4565 9.513899-.1307c-.96164-2.144-1.93885-2.7826-.002-4.7365 3.3442-3.3736 20.4677-9.6205 26.23-13.0294 8.497-5.0265 17.4074-17.455196 28.0716-11.88476l-2.4037 4.20532c4.96 2.18724 10.9797 3.30394 13.2848-2.62637l-7.2528-4.262c2.3626-6.46655 9.4218-.13392 12.9673.37577 3.7146.53399 8.7663-2.32587 12.3545 1.75546l-2.3751 2.11994 1.1671 1.07772c13.2716-.3601 27.5536 9.03582 39.4066 10.00132 8.462.6893 12.094-4.0403 13.582 8.1174.71 5.8001 1.122 14.0329 1.386 19.981.639 14.3851-.412 28.9422-.24 43.338-9.395 4.9574-17.313 11.8523-26.429 17.0663-5.856 3.349-12.838 6.813-18.831 9.959-4.1347 2.171-22.6077 12.452-25.2047 12.831-9.9985 1.459-13.4118-4.454-21.9354-7.119-6.6406-2.076-6.2287-1.527-12.074-4.51-4.1397-2.112-24.3497-10.504-28.0468-11.162-3.3842-.602-7.6299 2.433-10.21903-1.484-.13313-23.3128-4.284637-46.486-2.950269-69.8835zm10.734799 6.2382-.6801 9.5871 10.2836 3.1101.7085-9.5831zm-.0042 20.1444 1.7851 11.6714 9.0611 3.16-1.7735-11.6816zm2.4125 22.2611c.1965 7.9998-2.8504 15.7415 8.4343 18.0108l-1.3793-16.7976zm28.9528-52.9934c-11.9034-5.3696-17.0371-1.9906-26.5406 4.7523 9.4584 7.0159 20.1974 3.4206 26.5406-4.7523zm-10.858 59.3489v15.3703l10.8544 4.765c-1.4512-3.377 3.0519-15.4882.4935-17.0745zm.012-22.2603.5411 12.7641 11.5024 4.1957-.1914-12.5464zm-.0055-21.1958.191 11.4865 11.2329 4.4084c2.8615-.4957 1.4727-9.2045 2.5364-11.72zm7.2582-4.7755c8.9996 6.4822 18.2445 1.9388 25.2935-4.2398-11.3156-7.0231-15.9059-1.3283-25.2935 4.2398zm21.6996-23.8394c-7.4325-2.4762-13.2667-3.1307-16.8921 4.2222 6.0021 1.5574 10.1066 1.1863 15.3316-1.8604 1.1325-.6604 2.1789.1343 1.5605-2.3618zm8.4453 102.8123v-18.021l-15.6747-5.301c-.7293 4.107-3.3153 15.41.6926 17.931.6978.439 14.4293 5.91 14.9821 5.391zm-14.4279-44.4787c-5.3648 13.4793 3.6899 14.2659 15.6237 17.9786 4.4046-14.0756-.1813-16.9712-15.6237-17.9786zm-.0478-23.3656-.6947 12.7664 17.5785 4.1985c.0595-4.5452.4545-9.2273-1.4729-13.5441zm37.401-5.3116-16.5118-8.302-14.8731 7.7854c11.1167 4.4001 20.6762 7.2737 31.3849.5166zm-30.1622-22.2313c-.3639 2.5321-.0462 1.6889 1.6667 2.2215 3.9724 1.2351 14.2002 3.4531 16.4227-.6601.5506-2.1551-.9728-1.4635-2.4239-2.0462-7.9182-3.18-7.8152-2.847-15.6655.4848zm16.9006 81.6072.0024 13.779c3.1021-1.849 14.3109-6.575 15.4379-9.213 2.1769-5.097-.7894-10.522 1.4442-15.1569-6.2752.5622-13.4491 4.7649-13.8657 10.6859zm-.0016-93.2643c-2.1292 2.6272 9.8784 5.3548 11.696 6.1413l8.8048-5.6358c-6.969-1.2909-13.9597-4.366-20.5008-.5055zm16.8866 58.2825c-16.9653 3.2699-13.5815 10.4573-15.7047 22.7762l15.7047-7.4058zm-14.4138-13.726-.0612 11.602c11.0184-1.7575 16.7838-6.4833 14.4686-16.9513zm2.351-26.5385c-.6162 2.4735.386 1.6947 1.549 2.3579 3.1887 1.8182 22.6458 9.7389 22.5578 3.4553-7.589-3.6135-15.6159-10.4162-24.1068-5.8132zm50.6788-4.2701c.067-1.6366.474-2.5562-1.234-3.6722-.892-.5825-20.101-5.7484-21.207-5.8472-4.475-.4002-8.04 2.5242-11.346 4.774-.604 2.1118 16.473 9.2684 19.152 9.5247 5.144.4922 9.618-4.6604 14.635-4.7793zm-28.962 63.0851v15.3703c7.137-2.005 13.826-6.282 18.101-11.6496l-6.028-.0164 1.195-9.5295zm12.056-29.1506-11.862 5.9987 1.024 14.1429c.877.6839 10.491-3.9112 11.283-5.5882zm-10.598-15.6886c-.587.8797-.516 9.2869-.255 10.9417.64 4.0506 8.67-1.1447 10.269-2.6668l.59-12.7216c-1.004-.9156-10.304 3.9965-10.604 4.4467zm20.383-9.6503c-.411.4183-.347 9.5272-.122 11.0473.217 1.4628-.658 1.8532 1.766 1.5383l6.493-3.8454.179-10.9618zm9.523 38.0593-8.236 4.9455-.187 12.0144 8.237-3.3485zm-8.182-17.8069c-.6.905-.511 9.242-.256 10.9355.166 1.1029-.296 2.277 1.793 1.5587 8.063-2.7727 4.996-9.7597 5.438-15.8879z" fill="#353848"/></svg>