<svg xmlns="http://www.w3.org/2000/svg" height="800" width="1200" class="l-logo__img" viewBox="-75 -125 650 750"><g fill="none"><path d="M3.366 3.366v493.268h493.347V3.366z" fill="#fff"/><path d="M3.366 3.366v493.268h493.347V3.366zm460.55 205.072c-.782 15.341-5.713 34.44-10.018 47.276-17.376 51.503-37.492 83.516-84.064 83.516-13.697 0-38.04-3.679-46.963-28.1l-2.192-5.714-3.757 4.775a75.845 75.845 0 01-59.408 29.195c-17.768.079-32.091-5.87-41.25-17.22l-2.582-3.13-2.661 2.974c-9.863 10.958-27.082 17.22-47.198 17.22a51.111 51.111 0 01-38.353-15.107l-2.349-2.66-2.582 2.582c-10.02 10.019-25.674 15.107-45.398 14.637-24.03-.548-38.588-13.932-39.058-35.77-.782-33.657 31.857-104.493 45.398-126.018a40.545 40.545 0 0136.788-21.368c10.958 0 18.393 2.27 22.777 6.966 4.07 4.227 4.853 7.827 5.166 16.516l.47 11.192 5.948-9.47c14.324-23.09 37.962-26.222 61.522-26.222 16.28 0 30.526 5.95 36.24 15.263l2.113 3.444 3.13-2.583a73.967 73.967 0 0148.06-15.967c20.585 0 35.613 5.088 44.536 15.263 2.035 2.27 3.366 3.914 5.244 7.827l2.348 4.775 3.366-4.07a66.218 66.218 0 0153.225-23.325c17.533 0 30.839 4.696 39.605 13.854 10.958 11.584 12.524 27.786 11.898 39.37z" fill="#ffed00"/><path d="M3.366 3.366v493.268h493.347V3.366zM477.77 227.3c-2.27 18.003-14.402 51.268-20.82 64.496-17.22 35.692-40.389 63.009-84.925 63.009-23.795 0-43.363-7.514-54.79-22.151a89.543 89.543 0 01-59.8 22.386c-17.22 0-32.405-4.931-43.989-14.09a85.473 85.473 0 01-49.155 14.011 70.601 70.601 0 01-41.64-12.523 82.185 82.185 0 01-47.902 11.897c-31.857-.782-53.93-20.977-54.556-50.328-.783-38.98 32.092-110.364 47.511-135.02a57.451 57.451 0 0150.877-29.273c23.481 0 32.091 6.731 36.24 15.263 18.159-15.341 42.188-16.28 59.33-16.28 18.785 0 30.682 5.009 40.78 13.07a92.439 92.439 0 0148.997-12.68c24.264 0 42.345 5.636 54.947 18.082a81.794 81.794 0 0153.773-17.846c27.238 0 45.163 9.862 55.65 24.499 14.873 20.664 12.211 41.484 9.472 63.478z" fill="#e3000b"/><path d="M0 0v500h500V0zm493.112 6.888v486.224H6.888V6.888z" fill="#000"/><path d="M475.344 150.047v-3.444h2.349c1.643 0 2.583.626 2.583 1.722 0 .861-.548 1.722-2.349 1.722zm8.297 7.044l-1.409-2.504c-1.252-2.192-1.565-2.505-2.66-2.896 2.112-.313 3.365-1.644 3.365-3.523 0-1.956-1.253-3.444-3.914-3.444h-6.262v12.367h2.583v-5.087h.47c1.096 0 1.565.156 2.035.626.548.548 1.252 1.565 1.722 2.426l1.018 2.035h3.13zm-6.105-15.889a9.628 9.628 0 11.078 19.255 9.627 9.627 0 010-19.255zm0-2.348a11.976 11.976 0 100 23.951 11.976 11.976 0 000-23.95zm-65.2 12.837a69.662 69.662 0 00-55.808 24.577 31.544 31.544 0 00-5.714-8.61c-9.94-11.193-25.83-16.437-47.198-16.437-20.82 0-38.196 6.497-50.25 16.75-6.262-10.175-21.29-16.907-39.293-16.907-23.481 0-49.154 3.366-64.417 27.865-.313-8.844-1.174-13.54-6.106-18.785-6.027-6.34-15.81-8.062-25.281-8.062a43.832 43.832 0 00-39.762 23.012c-13.62 21.681-46.65 93.222-45.868 127.896.47 22.386 15.498 38.51 42.345 39.136 20.977.548 37.493-5.088 47.98-15.654a54.399 54.399 0 0040.859 16.202c19.176 0 38.353-5.792 49.702-18.316 9.628 11.74 24.656 18.629 43.99 18.55a79.368 79.368 0 0062.069-30.525c7.983 21.68 28.177 30.29 50.25 30.29 48.372 0 69.662-33.265 87.351-85.863 3.914-11.82 9.315-31.622 10.176-48.216 1.409-27.63-10.254-56.903-55.025-56.903zM90.56 283.97c25.047-4.383 31.31 4.696 30.526 12.993-2.348 25.047-25.36 30.683-45.397 30.213-14.402-.313-27.474-6.966-27.865-23.795-.626-29.43 29.43-97.526 43.52-120.069 6.574-10.723 14.48-16.045 27.16-16.045 12.053 0 15.028 6.261 14.871 13.619-.47 19.646-32.326 79.602-42.815 103.006zm81.481-23.168a259.08 259.08 0 00-7.279 23.794 82.185 82.185 0 0124.89-3.209c11.976.313 19.725 5.244 19.725 15.185 0 24.107-26.612 31.152-45.163 31.23-20.272 0-38.118-11.584-38.118-33.735 0-26.064 14.089-65.513 27.395-91.735 16.202-32.326 32.874-36.552 61.443-36.552 12.524 0 27.004 5.322 27.004 17.22 0 16.436-13.932 22.698-27.708 23.48-5.949.392-15.028.705-20.43.314 0 0-4.617 7.044-9.47 19.49 25.595-3.6 36.396 2.191 32.091 16.985-5.87 19.959-23.168 21.29-44.38 17.533zm125.861-62.227c-6.966 0-11.427 4.384-14.871 9.08-7.358 10.488-23.482 52.207-25.987 69.349-1.643 11.74 3.366 14.089 8.923 14.089 8.923 0 18.864-9.393 22.308-24.89 0 0-16.985-.392-12.289-15.42 4.54-14.559 13.15-17.69 27.395-18.316 28.1-1.174 25.282 19.568 23.09 30.683-7.357 35.926-32.874 64.73-69.035 64.73-24.734 0-40.154-13.697-40.154-38.9 0-18.003 8.923-46.181 16.046-62.775 15.028-35.222 30.84-59.721 70.993-59.721 24.186 0 43.206 8.61 40.388 31.309-2.035 16.515-10.332 26.299-25.438 27.395-4.227.391-21.447 0-15.733-16.437 2.035-5.714 2.818-10.176-5.636-10.176zM449.75 228.32c-4.227 21.133-13.776 46.18-24.186 64.809-16.907 30.526-37.493 34.752-55.495 34.518-17.924-.235-38.197-6.81-38.353-34.518-.079-19.881 8.531-47.98 15.81-66.375 12.68-33.422 25.674-60.582 66.688-60.112 47.746.547 39.293 43.049 35.536 61.6zm-34.127-20.899c-.47 12.758-19.177 63.87-25.83 75.141-2.896 4.853-6.105 8.923-11.975 8.923-5.088 0-7.436-3.679-7.593-7.827-.313-11.506 20.82-69.27 28.1-78.663 3.13-5.01 6.731-5.792 10.88-5.714 6.027 0 6.575 4.383 6.418 8.14z" fill="#000"/></g></svg>